<?xml version="1.0" encoding="UTF-8"?><svg id="Layer_1" xmlns="http://www.w3.org/2000/svg" viewBox="0 0 486.29 288.66"><defs><style>.cls-1{fill:#402f02;}</style></defs><path class="cls-1" d="M255.98,6.38c-57.01,0-103.39,45.16-103.39,100.68s46.38,100.68,103.39,100.68,103.39-45.17,103.39-100.68S312.99,6.38,255.98,6.38ZM283.99,86.5h0s62.02-10.6,62.02-10.6c3.57,9.75,5.52,20.24,5.52,31.16,0,22.81-8.48,43.73-22.52,59.93l-45.02,12.14v-92.63ZM345.65,74.9l-61.87,10.58h-.06s-37.12-52.46-37.12-52.46h0s58.22-5.9,58.22-5.9c18.64,10.84,33.2,27.69,40.82,47.78ZM275.04,110.65l-42.91,5.36h.01s-.02,0-.02,0v8.82l42.92,9.4v20.5s-56.02,10.71-56.02,10.71v-90s25.92-30.27,25.92-30.27l30.1,42.45v23.03ZM275.04,111.7v13.37s-39.81-8.39-39.81-8.39l39.81-4.97ZM255.98,200.1c-52.69,0-95.55-41.74-95.55-93.05S203.3,14.01,255.98,14.01c17.19,0,33.32,4.44,47.27,12.21l-57.36,5.81-35.16,41.17-.23.27v91.24s8.51,1.8,8.51,1.8h0s56.02-10.71,56.02-10.71v22.51s8.95,1.9,8.95,1.9h0s0,0,0,0h0s0,0,0,0l43.77-11.8c-17.52,19.42-43.2,31.7-71.77,31.7Z"/><path class="cls-1" d="M49.27,272.25h-18.37l-4.78,10.42h-6.98l21.23-45.61,20.48,45.61h-7.09l-4.5-10.42ZM46.63,266.16l-6.36-14.59-6.67,14.59h13.03Z"/><path class="cls-1" d="M81.33,260.21l-5.17,2.75c-.82-1.67-1.83-2.5-3.03-2.5-.57,0-1.07.19-1.47.57-.41.38-.61.87-.61,1.46,0,1.04,1.2,2.07,3.61,3.08,3.32,1.43,5.55,2.74,6.7,3.95,1.15,1.2,1.72,2.83,1.72,4.86,0,2.61-.96,4.8-2.89,6.56-1.87,1.67-4.13,2.5-6.78,2.5-4.54,0-7.75-2.21-9.64-6.64l5.34-2.47c.74,1.3,1.31,2.12,1.7,2.47.76.7,1.67,1.06,2.72,1.06,2.11,0,3.17-.96,3.17-2.89,0-1.11-.82-2.15-2.45-3.11-.63-.31-1.26-.62-1.89-.92-.63-.3-1.27-.6-1.92-.92-1.82-.89-3.09-1.78-3.84-2.67-.94-1.13-1.42-2.58-1.42-4.36,0-2.35.81-4.3,2.42-5.84,1.65-1.54,3.65-2.31,6-2.31,3.46,0,6.04,1.79,7.73,5.36Z"/><path class="cls-1" d="M104.99,260.21l-5.17,2.75c-.82-1.67-1.83-2.5-3.03-2.5-.57,0-1.07.19-1.47.57-.41.38-.61.87-.61,1.46,0,1.04,1.2,2.07,3.61,3.08,3.32,1.43,5.55,2.74,6.7,3.95,1.15,1.2,1.72,2.83,1.72,4.86,0,2.61-.96,4.8-2.89,6.56-1.87,1.67-4.13,2.5-6.78,2.5-4.54,0-7.75-2.21-9.64-6.64l5.34-2.47c.74,1.3,1.31,2.12,1.7,2.47.76.7,1.67,1.06,2.72,1.06,2.11,0,3.17-.96,3.17-2.89,0-1.11-.82-2.15-2.45-3.11-.63-.31-1.26-.62-1.89-.92-.63-.3-1.27-.6-1.92-.92-1.82-.89-3.09-1.78-3.84-2.67-.94-1.13-1.42-2.58-1.42-4.36,0-2.35.81-4.3,2.42-5.84,1.65-1.54,3.65-2.31,6-2.31,3.46,0,6.04,1.79,7.73,5.36Z"/><path class="cls-1" d="M137.58,270.61h-19.4c.17,2.22.89,3.99,2.17,5.31,1.28,1.3,2.92,1.95,4.92,1.95,1.56,0,2.84-.37,3.86-1.11,1-.74,2.14-2.11,3.42-4.11l5.28,2.95c-.82,1.39-1.68,2.58-2.58,3.57-.91.99-1.88,1.81-2.92,2.45-1.04.64-2.16,1.11-3.36,1.4-1.2.3-2.51.44-3.92.44-4.04,0-7.28-1.3-9.73-3.89-2.45-2.61-3.67-6.08-3.67-10.39s1.19-7.74,3.56-10.39c2.39-2.61,5.56-3.92,9.51-3.92s7.13,1.27,9.45,3.81c2.3,2.52,3.45,6.01,3.45,10.48l-.03,1.47ZM131.16,265.49c-.87-3.34-2.97-5-6.31-5-.76,0-1.47.12-2.14.35-.67.23-1.27.57-1.82,1-.55.44-1.01.96-1.4,1.57s-.69,1.31-.89,2.08h12.56Z"/><path class="cls-1" d="M144.98,255.6h6.25v2.5c1.2-1.26,2.23-2.11,3.08-2.56.91-.46,2.05-.69,3.42-.69,3.06,0,5.48,1.33,7.25,4,1.96-2.67,4.62-4,7.98-4,6.1,0,9.14,3.7,9.14,11.09v16.73h-6.28v-15.04c0-2.59-.32-4.43-.95-5.5-.65-1.09-1.71-1.64-3.2-1.64-1.72,0-2.98.65-3.77,1.95-.79,1.3-1.18,3.38-1.18,6.25v13.98h-6.28v-14.95c0-4.82-1.39-7.23-4.17-7.23-1.76,0-3.04.66-3.85,1.97-.81,1.32-1.21,3.39-1.21,6.23v13.98h-6.25v-27.07Z"/><path class="cls-1" d="M196.83,235.73v23.01c2.5-2.59,5.34-3.89,8.5-3.89,3.65,0,6.69,1.36,9.12,4.09,2.43,2.71,3.64,6.08,3.64,10.12s-1.22,7.62-3.67,10.34c-2.43,2.71-5.49,4.06-9.2,4.06-3.13,0-5.93-1.2-8.39-3.61v2.83h-6.25v-46.94h6.25ZM211.7,269.33c0-2.59-.7-4.71-2.11-6.34-1.43-1.67-3.21-2.5-5.36-2.5-2.3,0-4.17.81-5.61,2.42-1.43,1.59-2.14,3.67-2.14,6.23s.7,4.73,2.11,6.31c1.41,1.61,3.26,2.42,5.56,2.42,2.17,0,3.96-.81,5.39-2.42,1.45-1.63,2.17-3.67,2.17-6.11Z"/><path class="cls-1" d="M231.53,235.73v46.94h-6.25v-46.94h6.25Z"/><path class="cls-1" d="M264.67,270.61h-19.4c.17,2.22.89,3.99,2.17,5.31,1.28,1.3,2.92,1.95,4.92,1.95,1.56,0,2.84-.37,3.86-1.11,1-.74,2.14-2.11,3.42-4.11l5.28,2.95c-.82,1.39-1.68,2.58-2.58,3.57-.91.99-1.88,1.81-2.92,2.45-1.04.64-2.16,1.11-3.36,1.4-1.2.3-2.51.44-3.92.44-4.04,0-7.28-1.3-9.73-3.89-2.45-2.61-3.67-6.08-3.67-10.39s1.19-7.74,3.56-10.39c2.39-2.61,5.56-3.92,9.51-3.92s7.13,1.27,9.45,3.81c2.3,2.52,3.45,6.01,3.45,10.48l-.03,1.47ZM258.25,265.49c-.87-3.34-2.97-5-6.31-5-.76,0-1.47.12-2.14.35-.67.23-1.27.57-1.82,1-.55.44-1.01.96-1.4,1.57s-.69,1.31-.89,2.08h12.56Z"/><path class="cls-1" d="M292.03,235.73h6.28v46.94h-6.28v-2.83c-2.46,2.41-5.25,3.61-8.37,3.61-3.71,0-6.78-1.35-9.23-4.06-2.43-2.76-3.64-6.21-3.64-10.34s1.21-7.41,3.64-10.12c2.41-2.72,5.44-4.09,9.09-4.09,3.17,0,6,1.3,8.5,3.89v-23.01ZM277.19,269.05c0,2.59.69,4.71,2.08,6.34,1.43,1.65,3.22,2.47,5.39,2.47,2.32,0,4.19-.8,5.61-2.39,1.43-1.65,2.14-3.74,2.14-6.28s-.71-4.63-2.14-6.28c-1.43-1.61-3.28-2.42-5.56-2.42-2.15,0-3.95.82-5.39,2.45-1.43,1.65-2.14,3.69-2.14,6.11Z"/><path class="cls-1" d="M332.58,256.54h18.51v-16.79h6.48v42.91h-6.48v-20.04h-18.51v20.04h-6.48v-42.91h6.48v16.79Z"/><path class="cls-1" d="M365.94,268.94c0-3.91,1.4-7.24,4.2-9.98,2.8-2.74,6.21-4.11,10.23-4.11s7.47,1.38,10.28,4.14c2.78,2.76,4.17,6.15,4.17,10.17s-1.4,7.46-4.2,10.2c-2.82,2.72-6.27,4.09-10.37,4.09s-7.46-1.39-10.2-4.17c-2.74-2.74-4.11-6.19-4.11-10.34ZM372.34,269.05c0,2.71.72,4.85,2.17,6.42,1.48,1.59,3.44,2.39,5.86,2.39s4.4-.79,5.86-2.36c1.46-1.57,2.2-3.68,2.2-6.31s-.73-4.73-2.2-6.31c-1.48-1.59-3.44-2.39-5.86-2.39s-4.33.8-5.81,2.39c-1.48,1.59-2.22,3.65-2.22,6.17Z"/><path class="cls-1" d="M402,255.6h6.25v2.5c1.2-1.26,2.23-2.11,3.08-2.56.91-.46,2.05-.69,3.42-.69,3.06,0,5.48,1.33,7.25,4,1.96-2.67,4.62-4,7.98-4,6.1,0,9.14,3.7,9.14,11.09v16.73h-6.28v-15.04c0-2.59-.32-4.43-.94-5.5-.65-1.09-1.71-1.64-3.2-1.64-1.72,0-2.98.65-3.77,1.95-.79,1.3-1.18,3.38-1.18,6.25v13.98h-6.28v-14.95c0-4.82-1.39-7.23-4.17-7.23-1.76,0-3.04.66-3.85,1.97-.81,1.32-1.21,3.39-1.21,6.23v13.98h-6.25v-27.07Z"/><path class="cls-1" d="M472.25,270.61h-19.4c.17,2.22.89,3.99,2.17,5.31,1.28,1.3,2.92,1.95,4.92,1.95,1.56,0,2.84-.37,3.86-1.11,1-.74,2.14-2.11,3.42-4.11l5.28,2.95c-.82,1.39-1.68,2.58-2.58,3.57-.91.99-1.88,1.81-2.92,2.45-1.04.64-2.16,1.11-3.36,1.4-1.2.3-2.51.44-3.92.44-4.04,0-7.28-1.3-9.73-3.89-2.45-2.61-3.67-6.08-3.67-10.39s1.19-7.74,3.56-10.39c2.39-2.61,5.56-3.92,9.5-3.92s7.13,1.27,9.45,3.81c2.3,2.52,3.45,6.01,3.45,10.48l-.03,1.47ZM465.83,265.49c-.87-3.34-2.97-5-6.31-5-.76,0-1.47.12-2.14.35-.67.23-1.27.57-1.82,1-.55.44-1.01.96-1.4,1.57-.39.61-.69,1.31-.89,2.08h12.56Z"/></svg>