<?xml version="1.0" encoding="UTF-8"?><svg id="Layer_1" xmlns="http://www.w3.org/2000/svg" viewBox="0 0 206.78 201.36"><defs><style>.cls-1{fill:#402f02;}</style></defs><path class="cls-1" d="M103.39,6.37C49.99,6.37,6.54,48.68,6.54,100.68s43.45,94.31,96.85,94.31,96.85-42.31,96.85-94.31S156.79,6.37,103.39,6.37ZM129.62,81.42h0s58.1-9.93,58.1-9.93c3.34,9.13,5.17,18.96,5.17,29.19,0,21.37-7.94,40.96-21.1,56.14l-42.17,11.37v-86.77ZM187.38,70.55l-57.96,9.91h-.05s-34.78-49.14-34.78-49.14h0s54.54-5.53,54.54-5.53c17.46,10.16,31.1,25.94,38.24,44.76ZM121.24,104.04l-40.2,5.02h.01s-.02,0-.02,0v8.26l40.21,8.81v19.2s-52.48,10.03-52.48,10.03v-84.31s24.28-28.36,24.28-28.36l28.19,39.76v21.57ZM121.24,105.02v12.52s-37.29-7.86-37.29-7.86l37.29-4.66ZM103.39,187.84c-49.35,0-89.5-39.1-89.5-87.16S54.04,13.52,103.39,13.52c16.1,0,31.21,4.16,44.28,11.44l-53.73,5.44-32.93,38.57-.21.25v85.47s7.97,1.68,7.97,1.68h0s52.47-10.03,52.47-10.03v21.08s8.39,1.78,8.39,1.78h0s0,0,0,0h0s0,0,0,0l41-11.06c-16.42,18.19-40.47,29.69-67.23,29.69Z"/></svg>