<?xml version="1.0" encoding="UTF-8"?><svg id="Layer_1" xmlns="http://www.w3.org/2000/svg" viewBox="0 0 943.71 165.6"><defs><style>.cls-1{fill:#402f02;}</style></defs><path class="cls-1" d="M85.2,2.97C40,2.97,3.22,38.78,3.22,82.8s36.78,79.83,81.98,79.83,81.98-35.81,81.98-79.83S130.4,2.97,85.2,2.97ZM107.41,66.5h0s49.18-8.41,49.18-8.41c2.83,7.73,4.38,16.05,4.38,24.71,0,18.09-6.72,34.67-17.86,47.52l-35.7,9.63v-73.45ZM156.29,57.3l-49.06,8.39h-.04s-29.44-41.59-29.44-41.59h0s46.17-4.68,46.17-4.68c14.78,8.6,26.32,21.95,32.37,37.88ZM100.31,85.64l-34.03,4.25h.01s-.02,0-.02,0v7l34.03,7.46v16.25s-44.42,8.49-44.42,8.49V57.73s20.56-24,20.56-24l23.87,33.66v18.26ZM100.31,86.48v10.6s-31.57-6.66-31.57-6.66l31.57-3.94ZM85.2,156.58c-41.77,0-75.76-33.1-75.76-73.78S43.43,9.03,85.2,9.03c13.63,0,26.42,3.52,37.48,9.68l-45.48,4.6-27.88,32.65-.18.21v72.35s6.75,1.42,6.75,1.42h0s44.42-8.49,44.42-8.49v17.85s7.1,1.51,7.1,1.51h0s0,0,0,0h0s0,0,0,0l34.7-9.36c-13.9,15.4-34.25,25.13-56.91,25.13Z"/><path class="cls-1" d="M247.27,102.12h-30.05l-7.82,17.05h-11.41l34.74-74.61,33.51,74.61h-11.59l-7.37-17.05ZM242.95,92.16l-10.41-23.87-10.91,23.87h21.32Z"/><path class="cls-1" d="M299.72,82.43l-8.46,4.5c-1.33-2.73-2.99-4.09-4.96-4.09-.94,0-1.74.31-2.41.93-.67.62-1,1.42-1,2.39,0,1.7,1.97,3.38,5.91,5.05,5.43,2.33,9.08,4.49,10.96,6.46,1.88,1.97,2.82,4.62,2.82,7.96,0,4.27-1.58,7.85-4.73,10.73-3.06,2.73-6.76,4.09-11.09,4.09-7.43,0-12.68-3.62-15.78-10.87l8.73-4.05c1.21,2.12,2.14,3.47,2.77,4.05,1.24,1.15,2.73,1.73,4.46,1.73,3.46,0,5.18-1.58,5.18-4.73,0-1.82-1.33-3.52-4-5.09-1.03-.52-2.06-1.02-3.09-1.5-1.03-.48-2.08-.98-3.14-1.5-2.97-1.45-5.06-2.91-6.27-4.36-1.55-1.85-2.32-4.23-2.32-7.14,0-3.85,1.32-7.03,3.96-9.55,2.7-2.52,5.97-3.77,9.82-3.77,5.67,0,9.88,2.93,12.64,8.77Z"/><path class="cls-1" d="M338.43,82.43l-8.46,4.5c-1.33-2.73-2.99-4.09-4.96-4.09-.94,0-1.74.31-2.41.93-.67.62-1,1.42-1,2.39,0,1.7,1.97,3.38,5.91,5.05,5.43,2.33,9.08,4.49,10.96,6.46,1.88,1.97,2.82,4.62,2.82,7.96,0,4.27-1.58,7.85-4.73,10.73-3.06,2.73-6.76,4.09-11.09,4.09-7.43,0-12.68-3.62-15.78-10.87l8.73-4.05c1.21,2.12,2.14,3.47,2.77,4.05,1.24,1.15,2.73,1.73,4.46,1.73,3.46,0,5.18-1.58,5.18-4.73,0-1.82-1.33-3.52-4-5.09-1.03-.52-2.06-1.02-3.09-1.5-1.03-.48-2.08-.98-3.14-1.5-2.97-1.45-5.06-2.91-6.27-4.36-1.55-1.85-2.32-4.23-2.32-7.14,0-3.85,1.32-7.03,3.96-9.55,2.7-2.52,5.97-3.77,9.82-3.77,5.67,0,9.88,2.93,12.64,8.77Z"/><path class="cls-1" d="M391.74,99.44h-31.73c.27,3.64,1.45,6.53,3.55,8.68,2.09,2.12,4.77,3.18,8.05,3.18,2.55,0,4.65-.61,6.32-1.82,1.64-1.21,3.5-3.46,5.59-6.73l8.64,4.82c-1.33,2.27-2.74,4.22-4.23,5.84-1.49,1.62-3.08,2.96-4.77,4-1.7,1.05-3.53,1.81-5.5,2.3-1.97.48-4.11.73-6.41.73-6.61,0-11.91-2.12-15.91-6.37-4-4.27-6-9.94-6-17s1.94-12.67,5.82-17c3.91-4.27,9.09-6.41,15.55-6.41s11.67,2.08,15.46,6.23c3.76,4.12,5.64,9.84,5.64,17.14l-.05,2.41ZM381.23,91.07c-1.43-5.46-4.86-8.18-10.32-8.18-1.24,0-2.41.19-3.5.57-1.09.38-2.08.92-2.98,1.64-.89.71-1.66,1.57-2.3,2.57-.64,1-1.12,2.14-1.45,3.41h20.55Z"/><path class="cls-1" d="M403.85,74.89h10.23v4.09c1.97-2.06,3.65-3.46,5.05-4.18,1.48-.76,3.35-1.14,5.59-1.14,5,0,8.96,2.18,11.87,6.55,3.21-4.36,7.56-6.55,13.05-6.55,9.97,0,14.96,6.05,14.96,18.14v27.37h-10.27v-24.6c0-4.24-.52-7.24-1.55-9-1.06-1.79-2.8-2.68-5.23-2.68-2.82,0-4.87,1.06-6.16,3.18-1.29,2.12-1.93,5.53-1.93,10.23v22.87h-10.28v-24.46c0-7.88-2.27-11.82-6.82-11.82-2.88,0-4.98,1.08-6.3,3.23-1.32,2.15-1.98,5.55-1.98,10.18v22.87h-10.23v-44.28Z"/><path class="cls-1" d="M488.67,42.38v37.65c4.09-4.24,8.73-6.37,13.91-6.37,5.97,0,10.94,2.23,14.91,6.68,3.97,4.43,5.96,9.94,5.96,16.55s-2,12.46-6,16.91c-3.97,4.43-8.99,6.64-15.05,6.64-5.12,0-9.7-1.97-13.73-5.91v4.64h-10.23V42.38h10.23ZM512.99,97.35c0-4.24-1.15-7.7-3.46-10.37-2.33-2.73-5.26-4.09-8.77-4.09-3.76,0-6.82,1.32-9.18,3.96-2.33,2.61-3.5,6-3.5,10.18s1.15,7.74,3.46,10.32c2.3,2.64,5.33,3.96,9.09,3.96,3.55,0,6.49-1.32,8.82-3.96,2.36-2.67,3.55-6,3.55-10Z"/><path class="cls-1" d="M545.43,42.38v76.79h-10.23V42.38h10.23Z"/><path class="cls-1" d="M599.65,99.44h-31.73c.27,3.64,1.45,6.53,3.55,8.68,2.09,2.12,4.77,3.18,8.05,3.18,2.55,0,4.65-.61,6.32-1.82,1.64-1.21,3.5-3.46,5.59-6.73l8.64,4.82c-1.33,2.27-2.74,4.22-4.23,5.84-1.49,1.62-3.08,2.96-4.77,4-1.7,1.05-3.53,1.81-5.5,2.3-1.97.48-4.11.73-6.41.73-6.61,0-11.91-2.12-15.91-6.37-4-4.27-6-9.94-6-17s1.94-12.67,5.82-17c3.91-4.27,9.09-6.41,15.55-6.41s11.67,2.08,15.46,6.23c3.76,4.12,5.64,9.84,5.64,17.14l-.05,2.41ZM589.14,91.07c-1.43-5.46-4.86-8.18-10.32-8.18-1.24,0-2.41.19-3.5.57-1.09.38-2.08.92-2.98,1.64-.89.71-1.66,1.57-2.3,2.57s-1.12,2.14-1.45,3.41h20.55Z"/><path class="cls-1" d="M644.41,42.38h10.28v76.79h-10.28v-4.64c-4.03,3.94-8.59,5.91-13.68,5.91-6.06,0-11.09-2.21-15.09-6.64-3.97-4.52-5.96-10.15-5.96-16.91s1.98-12.12,5.96-16.55c3.94-4.46,8.9-6.68,14.87-6.68,5.18,0,9.82,2.12,13.91,6.37v-37.65ZM620.13,96.89c0,4.24,1.14,7.7,3.41,10.37,2.33,2.7,5.27,4.05,8.82,4.05,3.79,0,6.85-1.3,9.18-3.91,2.33-2.7,3.5-6.12,3.5-10.28s-1.17-7.58-3.5-10.28c-2.33-2.64-5.36-3.96-9.09-3.96-3.52,0-6.46,1.33-8.82,4-2.33,2.7-3.5,6.03-3.5,10Z"/><path class="cls-1" d="M710.74,76.43h30.28v-27.46h10.59v70.2h-10.59v-32.78h-30.28v32.78h-10.59V48.97h10.59v27.46Z"/><path class="cls-1" d="M765.32,96.71c0-6.4,2.29-11.84,6.87-16.32,4.58-4.49,10.15-6.73,16.73-6.73s12.21,2.26,16.82,6.77c4.55,4.52,6.82,10.06,6.82,16.64s-2.29,12.2-6.86,16.69c-4.61,4.46-10.26,6.68-16.96,6.68s-12.2-2.27-16.69-6.82c-4.49-4.49-6.73-10.12-6.73-16.91ZM775.77,96.89c0,4.43,1.18,7.93,3.55,10.5,2.42,2.61,5.62,3.91,9.59,3.91s7.2-1.29,9.59-3.86c2.39-2.58,3.59-6.02,3.59-10.32s-1.2-7.74-3.59-10.32c-2.43-2.61-5.62-3.91-9.59-3.91s-7.08,1.3-9.5,3.91c-2.43,2.61-3.64,5.97-3.64,10.09Z"/><path class="cls-1" d="M824.31,74.89h10.23v4.09c1.97-2.06,3.65-3.46,5.05-4.18,1.48-.76,3.35-1.14,5.59-1.14,5,0,8.96,2.18,11.87,6.55,3.21-4.36,7.56-6.55,13.05-6.55,9.97,0,14.96,6.05,14.96,18.14v27.37h-10.28v-24.6c0-4.24-.52-7.24-1.55-9-1.06-1.79-2.8-2.68-5.23-2.68-2.82,0-4.87,1.06-6.16,3.18-1.29,2.12-1.93,5.53-1.93,10.23v22.87h-10.27v-24.46c0-7.88-2.27-11.82-6.82-11.82-2.88,0-4.98,1.08-6.3,3.23-1.32,2.15-1.98,5.55-1.98,10.18v22.87h-10.23v-44.28Z"/><path class="cls-1" d="M939.22,99.44h-31.74c.27,3.64,1.46,6.53,3.55,8.68,2.09,2.12,4.77,3.18,8.05,3.18,2.55,0,4.65-.61,6.32-1.82,1.64-1.21,3.5-3.46,5.59-6.73l8.64,4.82c-1.33,2.27-2.74,4.22-4.23,5.84-1.49,1.62-3.08,2.96-4.77,4-1.7,1.05-3.53,1.81-5.5,2.3-1.97.48-4.11.73-6.41.73-6.61,0-11.91-2.12-15.91-6.37-4-4.27-6-9.94-6-17s1.94-12.67,5.82-17c3.91-4.27,9.09-6.41,15.55-6.41s11.67,2.08,15.46,6.23c3.76,4.12,5.64,9.84,5.64,17.14l-.05,2.41ZM928.72,91.07c-1.43-5.46-4.87-8.18-10.32-8.18-1.24,0-2.41.19-3.5.57-1.09.38-2.08.92-2.98,1.64-.89.71-1.66,1.57-2.3,2.57-.64,1-1.12,2.14-1.45,3.41h20.55Z"/></svg>